<?xml version="1.0" standalone="no"?>
<!DOCTYPE svg PUBLIC "-//W3C//DTD SVG 20010904//EN"
 "http://www.w3.org/TR/2001/REC-SVG-20010904/DTD/svg10.dtd">
<svg version="1.0" xmlns="http://www.w3.org/2000/svg"
 width="200.000000pt" height="200.000000pt" viewBox="0 0 200.000000 200.000000"
 preserveAspectRatio="xMidYMid meet">

<g transform="translate(0.000000,200.000000) scale(0.100000,-0.100000)"
fill="#000000" stroke="none">
<path d="M955 1875 c-24 -23 -25 -31 -25 -135 0 -124 12 -150 70 -150 58 0 70
26 70 150 0 104 -1 112 -25 135 -13 14 -33 25 -45 25 -11 0 -32 -11 -45 -25z"/>
<path d="M384 1648 c-26 -12 -46 -51 -37 -75 8 -26 144 -163 171 -174 47 -18
100 37 82 86 -11 28 -150 162 -175 168 -11 3 -30 1 -41 -5z"/>
<path d="M1570 1653 c-24 -8 -161 -145 -171 -171 -11 -29 6 -66 37 -81 35 -16
60 -2 141 81 75 77 81 88 70 129 -5 20 -47 53 -60 48 -1 0 -9 -3 -17 -6z"/>
<path d="M923 1489 c-129 -22 -242 -90 -318 -191 -132 -176 -132 -421 0 -595
182 -241 530 -265 744 -52 224 225 182 599 -86 769 -91 58 -236 87 -340 69z
m219 -161 c79 -36 142 -98 181 -177 28 -58 32 -75 32 -151 0 -76 -4 -93 -32
-151 -39 -79 -102 -140 -181 -177 -48 -22 -71 -27 -142 -27 -71 0 -94 5 -142
27 -79 37 -142 98 -181 177 -28 58 -32 75 -32 151 0 72 4 94 28 145 85 182
294 263 469 183z"/>
<path d="M125 1045 c-32 -31 -32 -59 0 -90 23 -24 31 -25 135 -25 124 0 150
12 150 70 0 58 -26 70 -150 70 -104 0 -112 -1 -135 -25z"/>
<path d="M1610 1050 c-11 -11 -20 -33 -20 -50 0 -58 26 -70 150 -70 104 0 112
1 135 25 32 31 32 59 0 90 -23 24 -31 25 -135 25 -97 0 -112 -2 -130 -20z"/>
<path d="M520 603 c-24 -8 -161 -145 -171 -171 -18 -45 29 -93 81 -83 21 4
160 141 171 169 11 29 -6 66 -38 81 -13 6 -25 11 -26 10 -1 0 -9 -3 -17 -6z"/>
<path d="M1434 598 c-29 -14 -46 -52 -35 -80 11 -28 150 -165 171 -169 52 -10
98 39 80 86 -11 28 -150 162 -175 168 -11 3 -30 1 -41 -5z"/>
<path d="M950 390 c-18 -18 -20 -33 -20 -130 0 -104 1 -112 25 -135 13 -14 34
-25 45 -25 11 0 32 11 45 25 24 23 25 31 25 135 0 124 -12 150 -70 150 -17 0
-39 -9 -50 -20z"/>
</g>
</svg>
