<?xml version="1.0" standalone="no"?>
<!DOCTYPE svg PUBLIC "-//W3C//DTD SVG 20010904//EN"
 "http://www.w3.org/TR/2001/REC-SVG-20010904/DTD/svg10.dtd">
<svg version="1.0" xmlns="http://www.w3.org/2000/svg"
 width="256.000000pt" height="256.000000pt" viewBox="0 0 256.000000 256.000000"
 preserveAspectRatio="xMidYMid meet">

<g transform="translate(0.000000,256.000000) scale(0.100000,-0.100000)"
fill="#000000" stroke="none">
<path d="M928 2410 c-250 -42 -450 -247 -486 -496 -7 -44 -9 -46 -57 -62 -176
-60 -307 -216 -336 -401 -41 -255 129 -507 385 -566 58 -14 179 -15 929 -13
l862 3 67 32 c85 40 151 106 191 191 28 59 32 77 31 152 -1 140 -60 250 -173
322 l-44 28 -2 107 c-2 117 -20 182 -70 264 -63 102 -172 185 -288 220 -55 17
-87 20 -165 17 -93 -4 -121 -12 -238 -64 -6 -3 -30 20 -53 51 -122 161 -349
249 -553 215z m233 -106 c116 -34 238 -130 290 -229 31 -60 55 -65 112 -27
121 84 278 94 412 28 165 -82 253 -253 225 -438 -7 -42 -9 -81 -6 -87 4 -6 31
-22 61 -36 62 -30 119 -89 147 -152 26 -58 22 -178 -7 -238 -26 -53 -80 -106
-140 -135 l-50 -25 -833 -3 c-543 -2 -854 1 -890 8 -272 49 -421 335 -304 583
50 107 170 203 278 222 56 10 74 30 74 79 0 191 156 389 355 452 58 18 210 17
276 -2z"/>
<path d="M618 758 c-22 -18 -128 -206 -128 -227 0 -46 59 -55 88 -13 36 53
112 191 112 205 0 15 -31 47 -46 47 -6 0 -17 -6 -26 -12z"/>
<path d="M1068 758 c-22 -18 -128 -206 -128 -227 0 -46 59 -55 88 -13 36 53
112 191 112 205 0 15 -31 47 -46 47 -6 0 -17 -6 -26 -12z"/>
<path d="M1518 758 c-23 -19 -128 -204 -128 -226 0 -26 24 -44 52 -40 17 2 38
30 85 108 34 58 63 112 63 121 0 17 -30 49 -46 49 -6 0 -17 -6 -26 -12z"/>
<path d="M1968 758 c-23 -19 -128 -203 -128 -225 0 -31 16 -45 46 -41 24 3 37
18 91 108 34 58 62 112 63 121 0 17 -30 49 -46 49 -6 0 -17 -6 -26 -12z"/>
<path d="M418 403 c-30 -34 -118 -199 -118 -221 0 -25 33 -46 58 -38 19 6 142
212 142 237 0 38 -55 53 -82 22z"/>
<path d="M868 403 c-30 -34 -118 -199 -118 -221 0 -25 33 -46 58 -38 19 6 142
213 142 238 0 37 -55 51 -82 21z"/>
<path d="M1318 403 c-33 -39 -118 -196 -118 -219 0 -32 42 -53 66 -33 22 18
134 210 134 230 0 38 -55 53 -82 22z"/>
<path d="M1711 314 c-68 -118 -74 -148 -36 -166 34 -15 47 -2 121 125 50 87
55 101 46 123 -9 17 -20 24 -40 24 -27 0 -35 -10 -91 -106z"/>
</g>
</svg>
