<?xml version="1.0" standalone="no"?>
<!DOCTYPE svg PUBLIC "-//W3C//DTD SVG 20010904//EN"
 "http://www.w3.org/TR/2001/REC-SVG-20010904/DTD/svg10.dtd">
<svg version="1.0" xmlns="http://www.w3.org/2000/svg"
 width="452.000000pt" height="452.000000pt" viewBox="0 0 452.000000 452.000000"
 preserveAspectRatio="xMidYMid meet">

<g transform="translate(0.000000,452.000000) scale(0.100000,-0.100000)"
fill="#000000" stroke="none">
<path d="M2472 3740 c-364 -51 -695 -280 -877 -604 l-36 -65 -63 34 c-189 104
-373 110 -564 19 -59 -28 -95 -55 -157 -118 -110 -111 -166 -221 -190 -378 -5
-34 -11 -38 -82 -72 -360 -171 -560 -555 -487 -937 61 -322 292 -580 605 -677
135 -42 196 -43 1739 -40 l1475 3 77 22 c233 66 419 219 522 428 63 128 80
204 81 355 0 190 -45 324 -161 476 -113 149 -294 261 -477 296 l-67 13 0 80
c0 548 -406 1036 -955 1150 -95 19 -295 27 -383 15z m299 -185 c120 -18 270
-71 373 -132 162 -96 332 -294 407 -472 66 -157 90 -358 66 -553 l-9 -68 99 0
c117 0 192 -17 291 -67 302 -151 425 -525 274 -833 -54 -111 -169 -224 -282
-278 -152 -72 -36 -67 -1705 -67 l-1510 0 -80 23 c-245 71 -427 253 -492 492
-28 103 -23 282 10 385 48 146 139 270 258 355 73 50 187 103 250 115 l36 7 0
86 c1 139 39 233 133 328 99 100 248 149 384 126 104 -17 183 -59 274 -146
l80 -77 18 48 c116 319 274 507 529 633 197 97 384 127 596 95z"/>
</g>
</svg>
